HIERARCHY
ROOT joint_Root
{
	OFFSET 0.0 0.0 0.0
	CHANNELS 6 Xposition Yposition Zposition Zrotation Xrotation Yrotation 
	JOINT Hips
	{
		OFFSET -0.726466 93.3139 -2.00062
		CHANNELS 6 Xposition Yposition Zposition Zrotation Xrotation Yrotation 
		JOINT Spine
		{
			OFFSET 15.7357 0.0 0.0
			CHANNELS 6 Xposition Yposition Zposition Zrotation Xrotation Yrotation 
			JOINT Chest
			{
				OFFSET 8.98455 -0.406207 0.0
				CHANNELS 6 Xposition Yposition Zposition Zrotation Xrotation Yrotation 
				JOINT Neck
				{
					OFFSET 16.3773 0.0 0.0
					CHANNELS 6 Xposition Yposition Zposition Zrotation Xrotation Yrotation 
					JOINT Head
					{
						OFFSET 6.45672 0.0 0.0
						CHANNELS 6 Xposition Yposition Zposition Zrotation Xrotation Yrotation 
						End Site
						{
							OFFSET 0.0 0.0 0.0
						}
					}
				}
				JOINT Shoulder_L
				{
					OFFSET 12.9942 -0.242716 4.98039
					CHANNELS 6 Xposition Yposition Zposition Zrotation Xrotation Yrotation 
					JOINT UpperArm_L
					{
						OFFSET 5.34809 0.0 0.0
						CHANNELS 6 Xposition Yposition Zposition Zrotation Xrotation Yrotation 
						JOINT LowerArm_L
						{
							OFFSET 24.3286 1.87007e-05 0.0
							CHANNELS 6 Xposition Yposition Zposition Zrotation Xrotation Yrotation 
							JOINT Hand_L
							{
								OFFSET 22.2916 0.0 0.0
								CHANNELS 6 Xposition Yposition Zposition Zrotation Xrotation Yrotation 
								End Site
								{
									OFFSET 0.0 0.0 0.0
								}
							}
						}
					}
				}
				JOINT Shoulder_R
				{
					OFFSET 12.9945 -0.242716 -4.98039
					CHANNELS 6 Xposition Yposition Zposition Zrotation Xrotation Yrotation 
					JOINT UpperArm_R
					{
						OFFSET -5.34813 0.0 0.0
						CHANNELS 6 Xposition Yposition Zposition Zrotation Xrotation Yrotation 
						JOINT LowerArm_R
						{
							OFFSET -24.3289 0.000322201 0.0
							CHANNELS 6 Xposition Yposition Zposition Zrotation Xrotation Yrotation 
							JOINT Hand_R
							{
								OFFSET -22.2915 -0.000108084 0.0
								CHANNELS 6 Xposition Yposition Zposition Zrotation Xrotation Yrotation 
								End Site
								{
									OFFSET 0.0 0.0 0.0
								}
							}
						}
					}
				}
			}
		}
		JOINT UpperLeg_L
		{
			OFFSET -2.19248 -6.46944 0.0
			CHANNELS 6 Xposition Yposition Zposition Zrotation Xrotation Yrotation 
			JOINT LowerLeg_L
			{
				OFFSET 39.0811 0.0 -1.23785e-05
				CHANNELS 6 Xposition Yposition Zposition Zrotation Xrotation Yrotation 
				JOINT Foot_L
				{
					OFFSET 40.9854 0.0 -1.26872e-05
					CHANNELS 6 Xposition Yposition Zposition Zrotation Xrotation Yrotation 
					JOINT Toes_L
					{
						OFFSET 11.7543 0.0 0.0
						CHANNELS 6 Xposition Yposition Zposition Zrotation Xrotation Yrotation 
						End Site
						{
							OFFSET 0.0 0.0 0.0
						}
					}
				}
			}
		}
		JOINT UpperLeg_R
		{
			OFFSET -2.19251 6.46944 0.0
			CHANNELS 6 Xposition Yposition Zposition Zrotation Xrotation Yrotation 
			JOINT LowerLeg_R
			{
				OFFSET -39.0811 -0.00228153 -0.0401928
				CHANNELS 6 Xposition Yposition Zposition Zrotation Xrotation Yrotation 
				JOINT Foot_R
				{
					OFFSET -40.9854 0.0 0.0
					CHANNELS 6 Xposition Yposition Zposition Zrotation Xrotation Yrotation 
					JOINT Toes_R
					{
						OFFSET -11.7543 0.0 0.0
						CHANNELS 6 Xposition Yposition Zposition Zrotation Xrotation Yrotation 
						End Site
						{
							OFFSET 0.0 0.0 0.0
						}
					}
				}
			}
		}
	}
}
MOTION
Frames:	4
Frame Time:	0.0333333
0.000000 0.000000 0.000000 0.000000 0.000000 -0.000000 0.063772 92.081000 -4.797520 87.129200 -4.962890 4.088830 15.735700 0.000005 -0.000001 85.075600 83.455400 -84.412200 8.984550 -0.406207 -0.000000 5.282510 -1.135490 1.377700 16.377300 -0.000001 -0.000001 4.991160 -0.435967 1.084530 6.456720 -0.000001 -0.000000 -1.389540 0.007246 -0.968800 12.994200 -0.242716 4.980390 -89.539600 -1.145550 -68.101800 5.348090 -0.000007 -0.000001 -72.727900 31.617100 -8.482100 24.328600 0.000019 0.000005 4.244270 8.812830 -25.844000 22.291600 -0.000001 0.000005 4.432990 5.604020 -11.583200 12.994500 -0.242716 -4.980390 89.115500 2.358560 -69.436100 -5.348130 -0.000001 -0.000004 -57.589300 41.419800 -8.969420 -24.328900 0.000322 -0.000009 -2.549910 -2.931850 -41.039400 -22.291500 -0.000108 -0.000004 3.387160 5.600270 -11.351500 -2.192480 -6.469440 -0.000000 -170.778000 -18.671400 -6.246600 39.081100 -0.000007 -0.000012 -0.139171 0.291757 25.501700 40.985400 -0.000006 -0.000013 -4.438710 -2.747850 -63.462900 11.754300 -0.000000 0.000003 -0.000062 -0.000687 -16.604100 -2.192510 6.469440 -0.000001 177.071000 20.277500 174.665000 -39.081100 -0.002282 -0.040193 0.040056 -0.090023 22.200200 -40.985400 0.000008 0.000006 0.775840 3.451830 -61.495900 -11.754300 -0.000006 -0.000006 -0.007268 -0.081952 -19.909600
0.000000 0.000000 0.000000 0.000000 0.000000 -0.000000 0.062842 92.072300 -4.845050 87.107600 -4.938750 4.180590 15.735700 0.000005 -0.000001 84.833600 83.388800 -84.066900 8.984550 -0.406207 -0.000000 5.412120 -1.203700 1.588580 16.377300 -0.000001 -0.000001 4.778070 -0.433667 1.115800 6.456720 -0.000001 -0.000000 -1.563780 0.215053 -1.205970 12.994200 -0.242716 4.980390 -89.576900 -1.060520 -68.248400 5.348090 -0.000007 -0.000001 -71.155600 32.918800 -9.419490 24.328600 0.000019 0.000005 5.187660 10.087400 -27.397600 22.291600 -0.000001 0.000005 4.990800 5.614310 -12.232200 12.994500 -0.242716 -4.980390 89.265400 1.958890 -69.440200 -5.348130 -0.000001 -0.000004 -56.129800 44.967100 -8.271770 -24.328900 0.000322 -0.000009 -1.906760 -1.885980 -45.341800 -22.291500 -0.000108 -0.000004 5.000680 5.613940 -12.192300 -2.192480 -6.469440 -0.000000 -170.732000 -18.664500 -6.229470 39.081100 -0.000007 -0.000012 -0.137635 0.287513 25.581000 40.985400 -0.000006 -0.000013 -4.423790 -2.710260 -63.464500 11.754300 -0.000000 0.000003 -0.000059 -0.000657 -16.603000 -2.192510 6.469440 -0.000001 177.049000 20.423500 174.746000 -39.081100 -0.002282 -0.040193 0.037481 -0.083725 22.197800 -40.985400 0.000008 0.000006 0.628511 3.537680 -61.470700 -11.754300 -0.000006 -0.000006 -0.007835 -0.086683 -20.102700
0.000000 0.000000 0.000000 0.000000 0.000000 -0.000000 0.037000 92.062500 -4.878970 87.114200 -4.685220 4.340580 15.735700 0.000005 -0.000001 84.484600 83.313000 -83.603300 8.984550 -0.406207 -0.000000 5.557720 -1.299360 1.823670 16.377300 -0.000001 -0.000001 4.508370 -0.437712 1.105780 6.456720 -0.000001 -0.000000 -1.723340 0.340813 -1.335110 12.994200 -0.242716 4.980390 -89.572600 -1.078540 -68.381600 5.348090 -0.000007 -0.000001 -68.727900 33.816900 -11.031200 24.328600 0.000019 0.000005 6.501510 11.826200 -29.075700 22.291600 -0.000001 0.000005 4.887740 5.620800 -12.677200 12.994500 -0.242716 -4.980390 89.470100 1.410330 -69.405400 -5.348130 -0.000001 -0.000004 -54.849600 48.396100 -6.976750 -24.328900 0.000322 -0.000009 0.193600 0.156537 -50.620400 -22.291500 -0.000108 -0.000004 7.788520 5.637920 -13.901900 -2.192480 -6.469440 -0.000000 -170.682000 -18.576400 -6.160370 39.081100 -0.000007 -0.000012 -0.139002 0.289693 25.632900 40.985400 -0.000006 -0.000013 -4.390750 -2.517560 -63.436600 11.754300 -0.000000 0.000003 -0.000062 -0.000687 -16.604100 -2.192510 6.469440 -0.000001 176.938000 20.650800 174.932000 -39.081100 -0.002282 -0.040193 0.030402 -0.066298 22.221200 -40.985400 0.000008 0.000006 0.434832 3.586170 -61.476600 -11.754300 -0.000006 -0.000006 -0.007464 -0.083601 -19.976900
0.000000 0.000000 0.000000 0.000000 0.000000 -0.000000 -0.022439 92.052200 -4.929260 87.131400 -4.298340 4.488170 15.735700 0.000005 -0.000001 84.096500 83.242100 -83.086400 8.984550 -0.406207 -0.000000 5.692520 -1.404990 2.087900 16.377300 -0.000001 -0.000001 4.232810 -0.523838 1.053350 6.456720 -0.000001 -0.000000 -2.025890 0.523388 -1.525080 12.994200 -0.242716 4.980390 -89.586900 -1.052750 -68.573400 5.348090 -0.000007 -0.000001 -65.189800 33.907400 -13.222400 24.328600 0.000019 0.000005 7.392810 12.505600 -30.929600 22.291600 -0.000001 0.000005 4.051190 5.624080 -12.909500 12.994500 -0.242716 -4.980390 89.710000 0.765336 -69.246600 -5.348130 -0.000001 -0.000004 -53.615000 51.552300 -5.452370 -24.328900 0.000322 -0.000009 2.767380 1.820990 -56.666600 -22.291500 -0.000108 -0.000004 9.288700 5.653180 -15.308800 -2.192480 -6.469440 -0.000000 -170.648000 -18.481900 -6.160720 39.081100 -0.000007 -0.000012 -0.134967 0.280650 25.683400 40.985400 -0.000006 -0.000013 -4.341710 -2.246420 -63.358900 11.754300 -0.000000 0.000003 -0.000060 -0.000664 -16.603300 -2.192510 6.469440 -0.000001 176.908000 20.712300 175.040000 -39.081100 -0.002282 -0.040193 0.031123 -0.067655 22.342800 -40.985400 0.000008 0.000006 0.456296 3.280120 -61.558800 -11.754300 -0.000006 -0.000006 -0.007766 -0.086109 -20.079300
